<svg xmlns="http://www.w3.org/2000/svg" height="800" width="1200" viewBox="-136.26285 -31 1180.9447 186"><path d="M908.419 21.9c0 5.278-4.285 9.563-9.57 9.563-5.27 0-9.556-4.279-9.556-9.563 0-5.284 4.286-9.563 9.557-9.563 5.29 0 9.569 4.28 9.569 9.563zm-9.563-7.97a7.964 7.964 0 00-7.963 7.97c0 4.4 3.558 7.97 7.963 7.97 4.406 0 7.977-3.57 7.977-7.97a7.975 7.975 0 00-7.977-7.97zm4.14 5.948c0 1.415-1.479 2.73-2.97 2.73.834.285 1.485 1.037 3.653 4.601h-2.03c-1.598-2.711-2.173-4.367-3.874-4.367h-1.093v4.367h-1.643V16.907h4.146c3.122 0 3.811 1.549 3.811 2.97m-6.314 1.543h2.237c1.429 0 2.333-.392 2.333-1.568 0-1.169-.91-1.56-2.333-1.56h-2.237v3.128m-15.675 89.42h-105.14V13.147H879.2v17.502h-79.738v21.42h54.791v17.558h-54.791v22.728h81.545zM105.14 92.355H23.594V69.626H78.38V52.067H23.594v-21.42h79.738v-17.5H0v97.694h105.14zm198.65-60.79h47.005V13.146h-117.42v18.418h46.733v79.277h23.689V31.564zm334.154-18.418h62.363c38.156 0 58.691 16.661 58.691 48.724 0 19.31-8.69 32.216-22.873 40.912-9.86 6.226-23.69 8.053-41.86 8.053h-56.321zm52.965 78.285c30.034 0 44.584-4.399 44.584-30.022 0-20.965-12.382-29.851-34.718-29.851h-38.877V91.43zm-175.986 19.41h-23.689l57.32-97.695h23.335l58.306 97.695h-26.679l-12.192-19.41h-64.563zm21.964-37.992h44.59l-21.875-39.547zM389.64 110.841h-23.41V13.146h78.853c21.957 0 36.336 13.008 36.336 31.944 0 15.39-7.427 25.383-21.97 29.39l24.574 36.355h-26.42l-23.657-34.61h-44.3v34.616zm0-53.389h52.89c9.96 0 15.744-4.93 15.744-13 0-7.408-5.878-12.547-15.827-12.547h-52.8v25.547z"/><path fill="#9c0" d="M234.86 75.15h-41.215l20.61 35.69L191.477 124l-20.611-35.704-15.188-26.3 15.188-26.305L191.476 0l22.78 13.146-20.611 35.704h41.215z"/><path fill="#63c" d="M106.865 75.15h41.222l-20.604 35.69L150.26 124l20.605-35.704 15.188-26.3-15.188-26.305L150.26 0l-22.778 13.146 20.604 35.704h-41.222z"/></svg>