<?xml version="1.0" encoding="utf-8"?>
<!-- Generator: Adobe Illustrator 24.0.0, SVG Export Plug-In . SVG Version: 6.00 Build 0)  -->
<svg version="1.1" id="Layer_1" xmlns="http://www.w3.org/2000/svg" xmlns:xlink="http://www.w3.org/1999/xlink" x="0px" y="0px"
	 viewBox="0 0 512 512" style="enable-background:new 0 0 512 512;" xml:space="preserve">
<style type="text/css">
	.st0{fill:#323A45;}
	.st1{fill:#105BD8;}
</style>
<g>
	<path class="st0" d="M99.69,376.99c-22.34-22.34-44.65-44.65-66.94-66.94c-2.35-2.35-4.53-4.83-6.54-7.42
		c-1.32-1.62-1.96-3.48-1.91-5.58c-0.05-1.91,0.54-3.63,1.76-5.14c0.64-0.83,1.35-1.64,2.13-2.42c1.32-1.42,2.69-2.84,4.12-4.26
		c32.28-32.28,64.54-64.54,96.77-96.77c1.52-1.52,3.04-2.99,4.56-4.41c0.93-0.83,1.89-1.59,2.87-2.28c1.37-0.88,2.87-1.3,4.48-1.25
		c1.96,0,3.7,0.61,5.22,1.84c0.83,0.64,1.62,1.32,2.35,2.06c5,5,9.99,9.99,14.99,14.99c0.93,0.93,1.79,1.94,2.57,3.01
		c1.91,2.79,2.06,5.68,0.44,8.67c-0.83,1.42-1.81,2.69-2.94,3.82c-0.39,0.39-0.78,0.78-1.18,1.18c-1.13,1.23-2.3,2.45-3.53,3.67
		c-6.37,6.37-12.74,12.74-19.1,19.1c-5.49,5.49-10.97,10.97-16.46,16.46c-1.13,1.13-2.25,2.25-3.38,3.38
		c-0.2,0.2-0.39,0.39-0.59,0.59c-1.27,1.37-2.33,2.87-3.16,4.48c-1.08,2.06-1.2,4.14-0.37,6.25c0.59,1.47,1.42,2.79,2.5,3.97
		c0.98,1.08,1.98,2.13,3.01,3.16c10.39,10.48,20.84,20.94,31.38,31.38c0.83,0.83,1.67,1.67,2.5,2.5c0.44,0.34,0.83,0.69,1.18,1.03
		c2.4,2.11,5.12,2.87,8.16,2.28c0.64-0.15,1.27-0.39,1.91-0.73c1.52-0.73,2.94-1.71,4.26-2.94c1.27-1.27,2.57-2.57,3.89-3.89
		c5.63-5.63,11.27-11.27,16.9-16.9c6.51-6.51,13.03-13.03,19.55-19.54c0.2-0.2,0.39-0.39,0.59-0.59c1.22-1.22,2.45-2.4,3.67-3.53
		c0.83-0.73,1.74-1.44,2.72-2.13c0.1-0.1,0.25-0.2,0.44-0.29c1.42-1.03,3.05-1.48,4.89-1.36c1.84,0.13,3.42,0.75,4.74,1.87
		c0.15,0.15,0.32,0.27,0.51,0.37c0.78,0.69,1.52,1.37,2.21,2.06c4.7,4.7,9.41,9.41,14.11,14.11c1.03,1.03,1.98,2.13,2.87,3.31
		c2.01,3.28,1.99,6.39-0.07,9.33c-0.2,0.2-0.37,0.42-0.51,0.66c-1.22,1.71-2.57,3.31-4.04,4.78c-1.23,1.23-2.43,2.43-3.6,3.6
		c-0.59,0.59-1.18,1.18-1.76,1.76c-3.43,3.43-6.83,6.83-10.21,10.21c-7.45,7.45-14.87,14.87-22.27,22.27
		c-1.52,1.52-2.99,3.04-4.41,4.56c-0.78,0.78-1.49,1.59-2.13,2.42c-2.3,3.38-2.38,6.74-0.22,10.07c0.49,0.79,1.08,1.52,1.76,2.21
		c1.13,1.23,2.3,2.45,3.53,3.67c9.94,10.04,19.91,20.01,29.91,29.91c1.08,1.18,2.2,2.3,3.38,3.38c0.83,0.74,1.69,1.4,2.57,1.98
		c3.04,1.76,6.05,1.79,9.04,0.07c1.71-0.93,3.23-2.06,4.56-3.38c0.49-0.49,0.98-0.98,1.47-1.47c0.88-0.88,1.79-1.79,2.72-2.72
		c4.95-4.95,9.87-9.87,14.77-14.77c6.96-6.96,13.89-13.89,20.79-20.79c1.42-1.42,2.84-2.79,4.26-4.12c0.78-0.78,1.62-1.47,2.5-2.06
		c1.57-1.08,3.32-1.58,5.25-1.51c1.94,0.07,3.64,0.75,5.11,2.02c0.2,0.2,0.42,0.42,0.66,0.66c0.59,0.49,1.15,1,1.69,1.54
		s1.08,1.08,1.62,1.62c4.26,4.26,8.52,8.52,12.79,12.79c1.08,1.18,2.06,2.4,2.94,3.67c1.08,1.47,1.54,3.11,1.4,4.92
		c-0.1,1.08-0.42,2.08-0.96,3.01c-0.74,1.42-1.67,2.69-2.79,3.82c-0.2,0.29-0.42,0.56-0.66,0.81c-0.88,0.88-1.76,1.76-2.64,2.64
		c-32.92,32.92-65.84,65.84-98.76,98.76c-0.2,0.2-0.42,0.42-0.66,0.66c-0.88,0.88-1.81,1.76-2.79,2.65
		c-0.98,0.88-2.03,1.69-3.16,2.42c-3.23,1.96-6.34,1.84-9.33-0.37c-1.91-1.42-3.75-2.91-5.51-4.48c-0.1-0.1-0.2-0.2-0.29-0.29
		c-0.83-0.73-1.64-1.54-2.42-2.42c-0.29-0.29-0.61-0.61-0.96-0.96c-23.61-23.61-47.2-47.2-70.76-70.76
		c-4.16-4.16-8.33-8.33-12.49-12.49C111.27,388.57,105.47,382.77,99.69,376.99z"/>
</g>
<g>
	<path class="st1" d="M112.7,363.79c-22.34-22.34-44.65-44.65-66.94-66.94c-2.35-2.35-4.53-4.82-6.54-7.42
		c-1.32-1.62-1.96-3.48-1.91-5.58c-0.05-1.91,0.54-3.63,1.76-5.14c0.64-0.83,1.35-1.64,2.13-2.42c1.32-1.42,2.69-2.84,4.12-4.26
		c32.28-32.28,64.54-64.54,96.78-96.78c1.52-1.52,3.04-2.99,4.56-4.41c0.93-0.83,1.89-1.59,2.87-2.28c1.37-0.88,2.87-1.3,4.48-1.25
		c1.96,0,3.7,0.61,5.22,1.84c0.83,0.64,1.62,1.32,2.35,2.06c5,5,9.99,9.99,14.99,14.99c0.93,0.93,1.79,1.94,2.57,3.01
		c1.91,2.79,2.06,5.68,0.44,8.67c-0.83,1.42-1.81,2.69-2.94,3.82c-0.39,0.39-0.78,0.78-1.18,1.18c-1.13,1.23-2.3,2.45-3.53,3.67
		c-6.37,6.37-12.74,12.74-19.11,19.11c-5.49,5.49-10.97,10.97-16.46,16.46c-1.13,1.13-2.25,2.25-3.38,3.38
		c-0.2,0.2-0.39,0.39-0.59,0.59c-1.27,1.37-2.33,2.87-3.16,4.48c-1.08,2.06-1.2,4.14-0.37,6.25c0.59,1.47,1.42,2.79,2.5,3.97
		c0.98,1.08,1.98,2.13,3.01,3.16c10.39,10.48,20.84,20.94,31.38,31.38c0.83,0.83,1.67,1.67,2.5,2.5c0.44,0.34,0.83,0.69,1.18,1.03
		c2.4,2.11,5.12,2.87,8.16,2.28c0.64-0.15,1.27-0.39,1.91-0.73c1.52-0.73,2.94-1.71,4.26-2.94c1.27-1.27,2.57-2.57,3.89-3.89
		c5.63-5.63,11.27-11.27,16.9-16.9c6.51-6.51,13.03-13.03,19.55-19.55c0.2-0.2,0.39-0.39,0.59-0.59c1.22-1.22,2.45-2.4,3.67-3.53
		c0.83-0.73,1.74-1.44,2.72-2.13c0.1-0.1,0.25-0.2,0.44-0.29c1.42-1.03,3.05-1.48,4.89-1.36c1.84,0.12,3.42,0.75,4.74,1.87
		c0.15,0.15,0.32,0.27,0.51,0.37c0.78,0.69,1.52,1.37,2.2,2.06c4.7,4.7,9.41,9.41,14.11,14.11c1.03,1.03,1.98,2.13,2.87,3.31
		c2.01,3.28,1.98,6.39-0.07,9.33c-0.2,0.2-0.37,0.42-0.51,0.66c-1.22,1.72-2.57,3.31-4.04,4.78c-1.22,1.22-2.42,2.42-3.6,3.6
		c-0.59,0.59-1.18,1.18-1.76,1.76c-3.43,3.43-6.83,6.83-10.21,10.21c-7.45,7.45-14.87,14.87-22.26,22.26
		c-1.52,1.52-2.99,3.04-4.41,4.56c-0.78,0.78-1.49,1.59-2.13,2.42c-2.3,3.38-2.38,6.74-0.22,10.07c0.49,0.78,1.08,1.52,1.76,2.2
		c1.13,1.23,2.3,2.45,3.53,3.67c9.94,10.04,19.91,20.01,29.91,29.91c1.08,1.18,2.2,2.3,3.38,3.38c0.83,0.74,1.69,1.4,2.57,1.98
		c3.04,1.77,6.05,1.79,9.04,0.07c1.71-0.93,3.23-2.06,4.55-3.38c0.49-0.49,0.98-0.98,1.47-1.47c0.88-0.88,1.79-1.79,2.72-2.72
		c4.95-4.95,9.87-9.87,14.77-14.77c6.96-6.96,13.89-13.89,20.79-20.79c1.42-1.42,2.84-2.79,4.26-4.12c0.78-0.78,1.62-1.47,2.5-2.06
		c1.57-1.08,3.32-1.58,5.25-1.51c1.93,0.08,3.64,0.75,5.11,2.02c0.2,0.2,0.42,0.42,0.66,0.66c0.59,0.49,1.15,1,1.69,1.54
		c0.54,0.54,1.08,1.08,1.62,1.62c4.26,4.26,8.52,8.52,12.79,12.79c1.08,1.18,2.06,2.4,2.94,3.67c1.08,1.47,1.54,3.11,1.4,4.92
		c-0.1,1.08-0.42,2.08-0.96,3.01c-0.73,1.42-1.67,2.69-2.79,3.82c-0.2,0.29-0.42,0.56-0.66,0.81c-0.88,0.88-1.76,1.76-2.65,2.65
		c-32.92,32.92-65.84,65.84-98.76,98.76c-0.2,0.2-0.42,0.42-0.66,0.66c-0.88,0.88-1.81,1.76-2.79,2.64
		c-0.98,0.88-2.03,1.69-3.16,2.42c-3.23,1.96-6.34,1.84-9.33-0.37c-1.91-1.42-3.75-2.91-5.51-4.48c-0.1-0.1-0.2-0.2-0.29-0.29
		c-0.83-0.73-1.64-1.54-2.42-2.42c-0.29-0.29-0.61-0.61-0.96-0.96c-23.61-23.61-47.2-47.2-70.76-70.76
		c-4.16-4.16-8.33-8.33-12.49-12.49C124.29,375.38,118.48,369.57,112.7,363.79z"/>
</g>
<g>
	<path class="st0" d="M403.13,140.71c22.34,22.34,44.65,44.65,66.94,66.94c2.35,2.35,4.53,4.82,6.54,7.42
		c1.32,1.62,1.96,3.48,1.91,5.58c0.05,1.91-0.54,3.63-1.76,5.14c-0.64,0.83-1.35,1.64-2.13,2.43c-1.32,1.42-2.69,2.84-4.12,4.26
		c-32.28,32.28-64.54,64.54-96.78,96.78c-1.52,1.52-3.04,2.99-4.56,4.41c-0.93,0.83-1.89,1.59-2.87,2.28
		c-1.37,0.88-2.87,1.3-4.48,1.25c-1.96,0-3.7-0.61-5.22-1.84c-0.83-0.64-1.62-1.32-2.35-2.06c-5-5-9.99-9.99-14.99-14.99
		c-0.93-0.93-1.79-1.94-2.57-3.01c-1.91-2.79-2.06-5.68-0.44-8.67c0.83-1.42,1.81-2.69,2.94-3.82c0.39-0.39,0.78-0.78,1.18-1.18
		c1.13-1.22,2.3-2.45,3.53-3.67c6.37-6.37,12.74-12.74,19.1-19.11c5.49-5.49,10.97-10.97,16.46-16.46c1.13-1.13,2.25-2.25,3.38-3.38
		c0.2-0.2,0.39-0.39,0.59-0.59c1.27-1.37,2.33-2.87,3.16-4.48c1.08-2.06,1.2-4.14,0.37-6.25c-0.59-1.47-1.42-2.79-2.5-3.97
		c-0.98-1.08-1.98-2.13-3.01-3.16c-10.39-10.48-20.85-20.94-31.38-31.38c-0.83-0.83-1.67-1.67-2.5-2.5
		c-0.44-0.35-0.83-0.69-1.18-1.03c-2.4-2.11-5.12-2.87-8.16-2.28c-0.64,0.15-1.27,0.39-1.91,0.73c-1.52,0.73-2.94,1.71-4.26,2.94
		c-1.27,1.27-2.57,2.57-3.89,3.89c-5.63,5.63-11.27,11.27-16.9,16.9c-6.51,6.51-13.03,13.03-19.55,19.55
		c-0.2,0.2-0.39,0.39-0.59,0.59c-1.22,1.22-2.45,2.4-3.67,3.53c-0.83,0.73-1.74,1.44-2.72,2.13c-0.1,0.1-0.25,0.19-0.44,0.29
		c-1.42,1.03-3.05,1.48-4.89,1.36c-1.84-0.12-3.42-0.75-4.74-1.87c-0.15-0.15-0.32-0.27-0.51-0.37c-0.78-0.69-1.52-1.37-2.21-2.06
		c-4.7-4.7-9.4-9.4-14.11-14.11c-1.03-1.03-1.98-2.13-2.87-3.31c-2.01-3.28-1.98-6.39,0.07-9.33c0.2-0.2,0.37-0.42,0.51-0.66
		c1.22-1.72,2.57-3.31,4.04-4.78c1.23-1.23,2.42-2.42,3.6-3.6c0.59-0.59,1.18-1.18,1.76-1.76c3.43-3.43,6.83-6.83,10.21-10.21
		c7.45-7.45,14.87-14.87,22.26-22.26c1.52-1.52,2.99-3.04,4.41-4.56c0.78-0.78,1.49-1.59,2.13-2.43c2.3-3.38,2.38-6.74,0.22-10.07
		c-0.49-0.78-1.08-1.52-1.76-2.2c-1.13-1.23-2.3-2.45-3.53-3.67c-9.94-10.04-19.91-20.01-29.91-29.91c-1.08-1.18-2.21-2.3-3.38-3.38
		c-0.83-0.74-1.69-1.4-2.57-1.98c-3.04-1.76-6.05-1.79-9.04-0.07c-1.71,0.93-3.23,2.06-4.55,3.38c-0.49,0.49-0.98,0.98-1.47,1.47
		c-0.88,0.88-1.79,1.79-2.72,2.72c-4.95,4.95-9.87,9.87-14.77,14.77c-6.96,6.96-13.89,13.89-20.8,20.8
		c-1.42,1.42-2.84,2.79-4.26,4.11c-0.78,0.78-1.62,1.47-2.5,2.06c-1.57,1.08-3.32,1.58-5.25,1.51c-1.93-0.07-3.64-0.75-5.11-2.02
		c-0.2-0.2-0.42-0.42-0.66-0.66c-0.59-0.49-1.15-1-1.69-1.54c-0.54-0.54-1.08-1.08-1.62-1.62c-4.26-4.26-8.52-8.52-12.79-12.79
		c-1.08-1.18-2.06-2.4-2.94-3.67c-1.08-1.47-1.54-3.11-1.4-4.92c0.1-1.08,0.42-2.08,0.96-3.01c0.73-1.42,1.67-2.69,2.79-3.82
		c0.2-0.29,0.42-0.56,0.66-0.81c0.88-0.88,1.76-1.76,2.65-2.65c32.92-32.92,65.84-65.84,98.76-98.76c0.2-0.2,0.42-0.42,0.66-0.66
		c0.88-0.88,1.82-1.76,2.79-2.64c0.98-0.88,2.03-1.69,3.16-2.43c3.23-1.96,6.34-1.84,9.33,0.37c1.91,1.42,3.75,2.91,5.51,4.48
		c0.1,0.1,0.2,0.2,0.29,0.29c0.83,0.73,1.64,1.54,2.43,2.43c0.29,0.29,0.61,0.61,0.96,0.96c23.61,23.61,47.2,47.2,70.76,70.76
		c4.16,4.16,8.33,8.33,12.49,12.49C391.54,129.12,397.35,134.93,403.13,140.71z"/>
</g>
<g>
	<path class="st1" d="M413.39,130.07c22.34,22.34,44.65,44.65,66.94,66.94c2.35,2.35,4.53,4.82,6.54,7.42
		c1.32,1.62,1.96,3.48,1.91,5.58c0.05,1.91-0.54,3.63-1.76,5.14c-0.64,0.83-1.35,1.64-2.13,2.43c-1.32,1.42-2.69,2.84-4.12,4.26
		c-32.28,32.28-64.54,64.54-96.77,96.77c-1.52,1.52-3.04,2.99-4.56,4.41c-0.93,0.83-1.89,1.59-2.87,2.28
		c-1.37,0.88-2.87,1.3-4.48,1.25c-1.96,0-3.7-0.61-5.22-1.84c-0.83-0.64-1.62-1.32-2.35-2.06c-5-5-9.99-9.99-14.99-14.99
		c-0.93-0.93-1.79-1.94-2.57-3.01c-1.91-2.79-2.06-5.68-0.44-8.67c0.83-1.42,1.81-2.69,2.94-3.82c0.39-0.39,0.78-0.78,1.18-1.18
		c1.13-1.22,2.3-2.45,3.53-3.67c6.37-6.37,12.74-12.74,19.11-19.11c5.49-5.49,10.97-10.97,16.46-16.46
		c1.13-1.13,2.25-2.25,3.38-3.38c0.2-0.2,0.39-0.39,0.59-0.59c1.27-1.37,2.33-2.87,3.16-4.48c1.08-2.06,1.2-4.14,0.37-6.25
		c-0.59-1.47-1.42-2.79-2.5-3.97c-0.98-1.08-1.98-2.13-3.01-3.16c-10.38-10.48-20.84-20.94-31.38-31.38
		c-0.83-0.83-1.67-1.67-2.5-2.5c-0.44-0.34-0.83-0.69-1.17-1.03c-2.4-2.11-5.12-2.87-8.16-2.28c-0.64,0.15-1.27,0.39-1.91,0.73
		c-1.52,0.73-2.94,1.71-4.26,2.94c-1.27,1.27-2.57,2.57-3.89,3.89c-5.63,5.63-11.27,11.27-16.9,16.9
		c-6.51,6.51-13.03,13.03-19.55,19.55c-0.19,0.2-0.39,0.39-0.59,0.59c-1.22,1.22-2.45,2.4-3.67,3.53c-0.83,0.73-1.74,1.44-2.72,2.13
		c-0.1,0.1-0.25,0.2-0.44,0.29c-1.42,1.03-3.05,1.48-4.89,1.36c-1.84-0.12-3.42-0.75-4.74-1.87c-0.15-0.15-0.32-0.27-0.51-0.37
		c-0.78-0.69-1.52-1.37-2.21-2.06c-4.7-4.7-9.41-9.41-14.11-14.11c-1.03-1.03-1.98-2.13-2.87-3.31c-2.01-3.28-1.98-6.39,0.07-9.33
		c0.2-0.2,0.37-0.42,0.51-0.66c1.22-1.71,2.57-3.31,4.04-4.78c1.23-1.23,2.42-2.42,3.6-3.6c0.59-0.59,1.18-1.18,1.76-1.76
		c3.43-3.43,6.83-6.83,10.21-10.21c7.45-7.45,14.87-14.87,22.26-22.26c1.52-1.52,2.99-3.04,4.41-4.56c0.78-0.78,1.49-1.59,2.13-2.42
		c2.3-3.38,2.38-6.74,0.22-10.07c-0.49-0.78-1.08-1.52-1.76-2.2c-1.13-1.23-2.3-2.45-3.53-3.68c-9.94-10.04-19.91-20.01-29.91-29.91
		c-1.08-1.18-2.21-2.3-3.38-3.38c-0.83-0.74-1.69-1.4-2.57-1.98c-3.04-1.76-6.05-1.79-9.04-0.07c-1.71,0.93-3.23,2.06-4.56,3.38
		c-0.49,0.49-0.98,0.98-1.47,1.47c-0.88,0.88-1.79,1.79-2.72,2.72c-4.95,4.95-9.87,9.87-14.77,14.77
		c-6.96,6.96-13.89,13.89-20.79,20.8c-1.42,1.42-2.84,2.79-4.26,4.12c-0.78,0.78-1.62,1.47-2.5,2.06c-1.57,1.08-3.32,1.58-5.25,1.51
		c-1.94-0.07-3.64-0.75-5.11-2.02c-0.2-0.2-0.42-0.42-0.66-0.66c-0.59-0.49-1.15-1-1.69-1.54c-0.54-0.54-1.08-1.08-1.62-1.62
		c-4.26-4.26-8.52-8.52-12.79-12.79c-1.08-1.18-2.06-2.4-2.94-3.67c-1.08-1.47-1.54-3.11-1.4-4.92c0.1-1.08,0.42-2.08,0.95-3.01
		c0.74-1.42,1.67-2.69,2.79-3.82c0.2-0.29,0.42-0.56,0.66-0.81c0.88-0.88,1.76-1.76,2.65-2.65c32.92-32.92,65.84-65.84,98.76-98.76
		c0.2-0.2,0.42-0.42,0.66-0.66c0.88-0.88,1.81-1.76,2.79-2.65c0.98-0.88,2.03-1.69,3.16-2.42c3.23-1.96,6.34-1.84,9.33,0.37
		c1.91,1.42,3.75,2.91,5.51,4.48c0.1,0.1,0.2,0.2,0.29,0.29c0.83,0.73,1.64,1.54,2.43,2.43c0.29,0.29,0.61,0.61,0.96,0.96
		c23.61,23.61,47.2,47.2,70.76,70.76c4.16,4.16,8.33,8.33,12.49,12.49C401.8,118.48,407.61,124.29,413.39,130.07z"/>
</g>
<path class="st1" d="M643,147"/>
<g>
</g>
<g>
</g>
<g>
</g>
<g>
</g>
<g>
</g>
<g>
</g>
<g>
</g>
<g>
</g>
<g>
</g>
<g>
</g>
<g>
</g>
<g>
</g>
<g>
</g>
<g>
</g>
<g>
</g>
</svg>
