<?xml version="1.0" encoding="UTF-8"?>
<svg id="Layer_1" data-name="Layer 1" xmlns="http://www.w3.org/2000/svg" viewBox="0 0 266.5 246">
  <defs>
    <style>
      .cls-1 {
        fill: #7dd559;
      }

      .cls-1, .cls-2, .cls-3 {
        stroke-width: 0px;
      }

      .cls-2 {
        fill: #0083ff;
      }

      .cls-3 {
        fill: #34a7ff;
      }
    </style>
  </defs>
  <circle class="cls-1" cx="147.13" cy="120.09" r="99.87"/>
  <path class="cls-3" d="m129.96,231.17s-20.53-45.16-20.53-100.58,20.53-105.51,20.53-105.51c0,0-36.27,46.64-36.27,104.81s36.27,101.28,36.27,101.28Z"/>
  <path class="cls-3" d="m189.54,232.22s-26.68-61.14-26.68-96.25,15.72-96.69,15.72-96.69c0,0-29.09,36.95-29.09,96.47s40.05,96.47,40.05,96.47Z"/>
  <path class="cls-2" d="m213,74.17c-108.79,20.53-143.68-18.47-143.68-18.47-6.16-14.37,16.42-16.42,16.42-16.42,0,0-30.79,2.05-32.84,16.42s47.21,26.68,47.21,26.68c0,0,65.68,13.32,112.89-6.68v-1.53Z"/>
  <path class="cls-2" d="m56.02,78.28s-47.21,4.11-47.21,24.63,65.68,34.89,65.68,34.89c0,0,73.89,24.63,182.68-10.26,0,0-148.6,23.83-216.44-15.28,0,0-39.11-18.59,15.29-33.98Z"/>
  <path class="cls-2" d="m49.01,143.96s-32.84,2.05-32.84,16.42,49.26,28.74,49.26,28.74c0,0,68.39,16.42,124.51,0,0,0-141.96,9.24-158.38-33.87,0,0-2.05-6.16,17.45-11.29Z"/>
</svg>